<svg width="24" height="24" viewBox="0 0 24 24" fill="none" xmlns="http://www.w3.org/2000/svg">
<g id="css3-02-svgrepo-com">
<g id="c133de6af664cd4f011a55de6b001b19">
<path id="Vector" d="M22.6459 0.0234375L20.6495 21.6475L11.9999 23.9765L3.35023 21.6475L1.35425 0.0234375H22.6459ZM18.623 4.42036H11.9922H5.2438L5.56653 7.03167H11.9922H12.3531L11.9922 7.18191L5.80137 9.76031L6.00669 12.3128L11.9922 12.3322L15.2002 12.3424L14.9948 15.7458L11.9921 16.5912V16.5885L11.9675 16.5953L9.06762 15.8633L8.89166 13.7506H8.88204H6.19226H6.1828L6.53487 17.8291L11.9922 19.443V19.44L12.002 19.443L17.4301 17.8585L18.1342 9.76031H11.9922H11.9771L11.9922 9.75375L18.3592 7.03167L18.623 4.42036Z" fill="black"/>
</g>
</g>
</svg>
