<svg width="24" height="24" viewBox="0 0 24 24" fill="none" xmlns="http://www.w3.org/2000/svg">
<g id="html5-02-svgrepo-com">
<g id="c133de6af664cd4f011a55de6b0011b2">
<path id="Vector" d="M1.4397 0.0234375L3.36176 21.5821L11.987 23.9764L20.6362 21.5788L22.5604 0.0234375H1.4397ZM18.551 5.13961L18.4307 6.48005L18.3778 7.07447H18.369H12H11.9908H8.25959L8.50123 9.78202H11.9908H12H17.4245H18.1371L18.0725 10.492L17.4512 17.4532L17.4114 17.8996L12 19.3994V19.3999L11.9879 19.4033L6.57162 17.8996L6.20117 13.7481H7.42451H8.85542L9.04367 15.8568L11.9884 16.6521L11.9908 16.6514V16.6511L14.94 15.8553L15.2466 12.426H12H11.9908H6.08304L5.43321 5.13961L5.36988 4.43034H11.9908H12H18.6143L18.551 5.13961Z" fill="black"/>
</g>
</g>
</svg>
