<svg width="24" height="24" viewBox="0 0 24 24" fill="none" xmlns="http://www.w3.org/2000/svg">
<g id="javascript-155-svgrepo-com" clip-path="url(#clip0_1513_772)">
<g id="Page-1">
<g id="Dribbble-Light-Preview">
<g id="icons">
<path id="javascript-[#155]" fill-rule="evenodd" clip-rule="evenodd" d="M18.3936 22.1186C16.2996 22.1186 14.946 21.1202 14.286 19.8146L16.122 18.7512C16.6056 19.5408 17.2332 20.1205 18.3456 20.1205C19.2792 20.1205 19.8756 19.6534 19.8756 19.009C19.8756 18.0394 18.582 17.6605 17.6688 17.2693C16.0416 16.5769 14.9616 15.7069 14.9616 13.8697C14.9616 12.1789 16.2504 10.8902 18.2652 10.8902C19.698 10.8902 20.73 11.3894 21.4704 12.6938L19.7148 13.8217C19.3284 13.1293 18.9096 12.8555 18.2652 12.8555C17.604 12.8555 17.1852 13.2745 17.1852 13.8217C17.1852 14.4985 17.604 14.7722 18.5712 15.191C20.598 16.0598 22.1316 16.7424 22.1316 18.9768C22.1316 21.0072 20.5368 22.1186 18.3936 22.1186ZM13.2 18.7189C13.2 21.0553 11.7612 22.2902 9.76318 22.2902C7.95838 22.2902 6.87719 21.6 6.34559 20.4H6.32761H6.31919H6.31439L8.14918 19.1174C8.50318 19.745 8.8224 20.1902 9.5952 20.1902C10.3368 20.1902 10.8 19.8147 10.8 18.6879V10.8H13.2V18.7189ZM0 24H24V0H0V24Z" fill="black"/>
</g>
</g>
</g>
</g>
<defs>
<clipPath id="clip0_1513_772">
<rect width="24" height="24" fill="white"/>
</clipPath>
</defs>
</svg>
