<svg width="24" height="24" viewBox="0 0 24 24" fill="none" xmlns="http://www.w3.org/2000/svg">
<g id="laravel-svgrepo-com (1)" clip-path="url(#clip0_1513_767)">
<path id="Vector" d="M9.85737 17.6887L17.7024 13.2112L14.1384 11.1592L6.29862 15.6735L9.85737 17.6887ZM18.0631 8.53046L14.4954 6.47846V10.5412L18.0639 12.594L18.0631 8.53046ZM18.4194 3.80846L14.8524 5.86046L18.4194 7.91246L21.9856 5.85971L18.4194 3.80846ZM7.43337 14.196L9.50337 13.0042V4.05371L5.93487 6.10721V15.0577L7.43337 14.196ZM5.57787 1.38446L2.01087 3.43721L5.57787 5.48996L9.14262 3.43721L5.57787 1.38446ZM1.65312 4.05446V17.8935L9.50112 22.41V18.3067L5.39712 15.9847C5.38362 15.975 5.37312 15.9645 5.35887 15.9555C5.34837 15.9457 5.33637 15.9382 5.32587 15.93L5.32512 15.9277C5.31387 15.9165 5.30412 15.9045 5.29587 15.891L5.29512 15.8902C5.28462 15.8805 5.27637 15.8692 5.26887 15.8565L5.26812 15.8557H5.26587C5.25987 15.8445 5.25387 15.8295 5.24787 15.8145L5.24712 15.8115C5.24187 15.8002 5.23587 15.7875 5.23062 15.7732L5.22987 15.771C5.22687 15.756 5.22387 15.7372 5.22237 15.7185V15.717C5.22012 15.7057 5.21787 15.6922 5.21637 15.6787V15.678V6.10871L3.14862 4.91621L1.65312 4.05446ZM18.0639 17.8927V13.8262L10.2159 18.3067V22.4092L18.0639 17.8927ZM22.3419 10.5412V6.47846L18.7749 8.53121V12.594L22.3419 10.5412ZM23.0439 5.76746C23.0521 5.79596 23.0574 5.82821 23.0574 5.86196V10.7467C23.0574 10.8787 22.9861 10.9935 22.8796 11.055L22.8781 11.0557L18.7771 13.4175V18.0982C18.7771 18.2295 18.7059 18.3442 18.6001 18.4065L18.5986 18.4072L10.0366 23.3347C10.0186 23.3445 9.99762 23.3535 9.97587 23.3595L9.97362 23.3602L9.95112 23.37C9.92412 23.3782 9.89262 23.3827 9.86037 23.3827C9.82812 23.3827 9.79662 23.3782 9.76662 23.3692L9.76887 23.37C9.75762 23.367 9.74862 23.3632 9.73962 23.358L9.74037 23.3587C9.71712 23.3505 9.69762 23.343 9.67887 23.334L9.68187 23.3355L1.12212 18.408C1.01412 18.345 0.942871 18.2302 0.942871 18.099V3.43796C0.942871 3.40496 0.948121 3.37271 0.957121 3.34271L0.956371 3.34496C0.959371 3.33371 0.966121 3.32621 0.969871 3.31496C0.976621 3.29321 0.984121 3.27521 0.992371 3.25796L0.991621 3.26021C0.997621 3.24821 1.00512 3.23771 1.01337 3.22871L1.04487 3.18596L1.08012 3.16046C1.09362 3.14921 1.10562 3.13796 1.11912 3.12821H1.11987L5.40087 0.664455C5.45187 0.634455 5.51337 0.616455 5.57862 0.616455C5.64387 0.616455 5.70537 0.634455 5.75787 0.665205L5.75637 0.664455L10.0389 3.12821C10.0531 3.13796 10.0651 3.14846 10.0771 3.15971L10.1131 3.18521C10.1251 3.19871 10.1319 3.21371 10.1446 3.22796C10.1536 3.23696 10.1611 3.24746 10.1679 3.25871L10.1686 3.25946C10.1761 3.27446 10.1836 3.29246 10.1904 3.31121L10.1911 3.31421L10.2031 3.34421C10.2114 3.37046 10.2166 3.40121 10.2166 3.43271C10.2166 3.43421 10.2166 3.43571 10.2166 3.43721V12.5932L13.7836 10.5405V5.85971C13.7836 5.85896 13.7836 5.85821 13.7836 5.85821C13.7836 5.82596 13.7881 5.79446 13.7964 5.76446L13.7956 5.76671C13.7986 5.75696 13.8054 5.74796 13.8076 5.73671C13.8151 5.71421 13.8226 5.69621 13.8316 5.67821L13.8301 5.68121C13.8369 5.66996 13.8474 5.66246 13.8541 5.64971C13.8654 5.63546 13.8744 5.62121 13.8856 5.60921C13.8961 5.59946 13.9074 5.59046 13.9194 5.58296L13.9201 5.58221C13.9336 5.57246 13.9449 5.56046 13.9591 5.55221H13.9599L18.2409 3.08771C18.2919 3.05771 18.3534 3.03971 18.4186 3.03971C18.4839 3.03971 18.5454 3.05771 18.5979 3.08846L18.5964 3.08771L22.8774 5.55221C22.8924 5.56196 22.9029 5.57246 22.9171 5.58146C22.9284 5.59121 22.9411 5.59871 22.9516 5.60771C22.9636 5.62121 22.9726 5.63621 22.9839 5.64971C22.9921 5.65871 22.9996 5.66921 23.0064 5.67971L23.0071 5.68046C23.0161 5.69696 23.0236 5.71571 23.0296 5.73521L23.0304 5.73746C23.0364 5.74646 23.0409 5.75621 23.0446 5.76671L23.0439 5.76746Z" fill="black"/>
</g>
<defs>
<clipPath id="clip0_1513_767">
<rect width="24" height="24" fill="white"/>
</clipPath>
</defs>
</svg>
