<svg width="24" height="24" viewBox="0 0 24 24" fill="none" xmlns="http://www.w3.org/2000/svg">
<g id="react-svgrepo-com (1)">
<path id="Vector" d="M10.7347 16.6583C11.1472 16.677 11.5687 16.6905 11.9954 16.6905C12.4267 16.6905 12.8527 16.6815 13.2704 16.6583C12.8527 17.1983 12.4402 17.676 12.0037 18.1313L12.0097 18.1253C11.5754 17.6753 11.1584 17.1968 10.7654 16.6988L10.7347 16.6583ZM6.46116 16.0583C7.27341 16.2645 8.26416 16.44 9.27516 16.548L9.37341 16.5563C9.99216 17.406 10.6177 18.1538 11.2889 18.8573L11.2807 18.8483C10.2974 19.9455 8.97066 20.7165 7.46991 20.9933L7.42866 20.9993C7.42566 20.9993 7.42266 20.9993 7.41966 20.9993C7.23366 20.9993 7.05816 20.9535 6.90441 20.8725L6.91041 20.8755C6.28641 20.5193 6.01566 19.1565 6.22641 17.4053C6.27666 16.974 6.35916 16.5203 6.46041 16.0575L6.46116 16.0583ZM17.5484 16.0485C17.6369 16.404 17.7202 16.857 17.7794 17.3175L17.7862 17.382C18.0014 19.1325 17.7359 20.4938 17.1172 20.8575C16.9792 20.934 16.8142 20.979 16.6387 20.979C16.6214 20.979 16.6042 20.9783 16.5869 20.9775H16.5892C15.0494 20.6963 13.7234 19.9305 12.7424 18.8468L12.7372 18.8408C13.3964 18.1485 14.0174 17.4023 14.5867 16.617L14.6302 16.554C15.7372 16.4385 16.7294 16.26 17.6962 16.0163L17.5484 16.0478V16.0485ZM7.33791 13.2495C7.52541 13.617 7.72191 13.983 7.93791 14.3505C8.15341 14.716 8.37366 15.073 8.59866 15.4215C7.94766 15.3263 7.31916 15.2063 6.71841 15.06C6.88716 14.4698 7.09866 13.8585 7.33716 13.248L7.33791 13.2495ZM16.6589 13.2308C16.9072 13.8465 17.1179 14.4608 17.2927 15.0563C16.6927 15.2033 16.0589 15.3278 15.4034 15.4215C15.6284 15.0698 15.8534 14.7075 16.0642 14.3363C16.2749 13.971 16.4722 13.5975 16.6604 13.23L16.6589 13.2308ZM5.71416 9.21903C6.04116 10.3275 6.39216 11.2545 6.80091 12.1485L6.74466 12.012C6.39516 12.7658 6.04941 13.6875 5.76591 14.6363L5.72691 14.79C5.19741 14.6273 4.77141 14.4675 4.35666 14.2883L4.44291 14.3213C2.81991 13.6305 1.76991 12.7223 1.76991 12.0023C1.76991 11.2823 2.81991 10.3695 4.44291 9.68178C4.83666 9.51303 5.26866 9.36078 5.71416 9.21903ZM18.2684 9.21528C18.7222 9.35553 19.1534 9.51228 19.5569 9.68178C21.1799 10.3755 22.2299 11.2823 22.2299 12.0023C22.2254 12.7223 21.1754 13.6328 19.5524 14.322C19.1587 14.4908 18.7274 14.6423 18.2827 14.784C17.9527 13.6718 17.6017 12.7455 17.1944 11.85L17.2514 11.991C17.5994 11.238 17.9459 10.3163 18.2287 9.36753L18.2684 9.21303V9.21528ZM15.3974 8.58303C16.0492 8.67978 16.6769 8.79828 17.2777 8.94603C17.1089 9.53853 16.8982 10.1475 16.6589 10.758C16.4714 10.3928 16.2749 10.0245 16.0589 9.65778C15.8482 9.29028 15.6232 8.93253 15.3982 8.58378L15.3974 8.58303ZM8.59341 8.58303C8.36841 8.93628 8.14341 9.29778 7.93341 9.67053C7.72266 10.0358 7.52541 10.4033 7.33791 10.7708C7.08966 10.1558 6.87891 9.54303 6.70416 8.94603C7.30416 8.80578 7.93641 8.68053 8.59266 8.58453L8.59341 8.58303ZM11.9999 8.34453C12.6937 8.34453 13.3844 8.37603 14.0639 8.43153C14.4444 8.97703 14.8139 9.55803 15.1724 10.1745C15.5209 10.7745 15.8389 11.3825 16.1264 11.9985C15.8377 12.6128 15.5212 13.2263 15.1769 13.8263C14.8207 14.445 14.4524 15.0338 14.0707 15.579C13.3882 15.6383 12.6967 15.6705 11.9992 15.6705C11.3054 15.6705 10.6147 15.6375 9.93516 15.5835C9.55491 15.0383 9.18366 14.4548 8.82666 13.8405C8.47816 13.2405 8.16016 12.6325 7.87266 12.0165C8.15691 11.4008 8.47791 10.7858 8.82216 10.185C9.17841 9.56628 9.54666 8.97978 9.92841 8.43453C10.6109 8.37453 11.3024 8.34303 11.9999 8.34303V8.34453ZM11.9857 5.88378C12.4207 6.33378 12.8377 6.81153 13.2299 7.30953L13.2599 7.34928C12.8474 7.33053 12.4259 7.31778 11.9992 7.31778C11.5679 7.31778 11.1419 7.32678 10.7242 7.34928C11.1412 6.80928 11.5537 6.33153 11.9909 5.87628L11.9849 5.88228L11.9857 5.88378ZM7.40991 3.02478C8.94966 3.30678 10.2749 4.07253 11.2567 5.15553L11.2619 5.16153C10.6027 5.85453 9.98166 6.60078 9.41241 7.38753L9.36891 7.45053C8.26266 7.56528 7.27041 7.74228 6.30441 7.98603L6.45141 7.95453C6.34641 7.49553 6.26841 7.05078 6.21366 6.62403C5.99841 4.87353 6.26391 3.51228 6.88266 3.15003C7.03716 3.07728 7.21791 3.03228 7.40841 3.02628H7.41066L7.40991 3.02478ZM16.5674 3.00603V3.01203C16.5772 3.01203 16.5884 3.01128 16.6004 3.01128C16.7797 3.01128 16.9484 3.05553 17.0969 3.13353L17.0909 3.13053C17.7149 3.48828 17.9857 4.85028 17.7749 6.60228C17.7247 7.03353 17.6422 7.48803 17.5409 7.95153C16.7272 7.74303 15.7364 7.56678 14.7254 7.45953L14.6294 7.45128C14.0099 6.60078 13.3844 5.85303 12.7132 5.14878L12.7222 5.15778C13.7054 4.06278 15.0299 3.29178 16.5277 3.01353L16.5697 3.00678L16.5674 3.00603ZM16.5719 1.98453C14.7404 2.26278 13.1549 3.15228 11.9969 4.43553L11.9909 4.44228C10.8247 3.15978 9.23916 2.27628 7.45266 2.00853L7.41066 2.00328C7.40091 2.00328 7.38891 2.00328 7.37691 2.00328C7.00866 2.00328 6.66291 2.10003 6.36366 2.26953L6.37416 2.26428C5.08566 3.00753 4.79691 5.32353 5.46216 8.22978C2.60916 9.11103 0.753662 10.5195 0.753662 12.0038C0.753662 13.494 2.61891 14.9063 5.48016 15.7808C4.82016 18.6983 5.11491 21.018 6.40641 21.7605C6.68991 21.9233 7.03041 22.0185 7.39266 22.0185C7.40916 22.0185 7.42566 22.0185 7.44141 22.0178H7.43916C9.27066 21.7395 10.8562 20.8493 12.0142 19.5653L12.0202 19.5585C13.1864 20.8418 14.7719 21.7253 16.5584 21.993L16.6004 21.9983C16.6117 21.9983 16.6259 21.9983 16.6394 21.9983C17.0054 21.9983 17.3497 21.9023 17.6474 21.735L17.6369 21.7403C18.9247 20.9978 19.2142 18.6818 18.5489 15.7748C21.3914 14.901 23.2469 13.4895 23.2469 12.003C23.2469 10.5128 21.3817 9.10053 18.5204 8.22378C19.1804 5.30928 18.8857 2.98728 17.5942 2.24403C17.3077 2.07978 16.9642 1.98303 16.5982 1.98303C16.5884 1.98303 16.5787 1.98303 16.5689 1.98303H16.5704L16.5719 1.98453ZM14.0902 12.0038C14.0902 13.161 13.1519 14.0993 11.9947 14.0993C10.8374 14.0993 9.89916 13.161 9.89916 12.0038C9.89916 10.8465 10.8374 9.90828 11.9947 9.90828C12.5737 9.90828 13.0972 10.143 13.4767 10.5218C13.8562 10.9013 14.0902 11.4248 14.0902 12.0038Z" fill="black"/>
</g>
</svg>
